<?xml version="1.0" standalone="no"?>
<!DOCTYPE svg PUBLIC "-//W3C//DTD SVG 20010904//EN"
 "http://www.w3.org/TR/2001/REC-SVG-20010904/DTD/svg10.dtd">
<svg version="1.0" xmlns="http://www.w3.org/2000/svg"
 width="400.000000pt" height="300.000000pt" viewBox="0 0 400.000000 300.000000"
 preserveAspectRatio="xMidYMid meet">

<g transform="translate(0.000000,300.000000) scale(0.100000,-0.100000)"
fill="#000000" stroke="none">
<path d="M1913 2035 c-133 -29 -234 -95 -371 -241 -123 -130 -147 -167 -146
-218 1 -37 26 -108 53 -145 14 -22 41 4 41 40 0 25 5 30 41 39 70 19 69 24 69
-291 l0 -279 84 0 84 0 12 34 c57 175 275 232 412 108 40 -36 78 -98 78 -127
0 -12 17 -15 101 -15 l101 0 -7 33 c-24 108 -83 209 -157 267 l-48 38 50 37
c105 77 168 221 157 356 -22 259 -274 425 -554 364z m241 -219 c52 -30 100
-96 117 -160 22 -80 -21 -202 -88 -253 -45 -35 -108 -40 -150 -14 -57 36 -73
91 -48 169 13 40 -15 24 -35 -20 -23 -51 -25 -97 -6 -143 17 -40 10 -43 -42
-16 -80 41 -132 128 -132 221 0 198 212 317 384 216z m-514 -111 c26 -32 -13
-81 -47 -59 -35 22 -23 74 17 74 10 0 23 -7 30 -15z"/>
</g>
</svg>
